<svg xmlns="http://www.w3.org/2000/svg" width="76" height="78" fill="none" viewBox="0 0 76 78">
  <path fill="#D52349" d="m74.194 48.375-6.719-3.75c.781-3.75.781-7.344 0-11.094l6.719-3.75c.781-.468 1.093-1.406.781-2.187-1.719-5.625-4.688-10.625-8.438-14.844-.625-.625-1.562-.781-2.343-.313l-6.719 3.75c-2.813-2.343-5.938-4.218-9.375-5.468V3.063c0-.782-.625-1.563-1.563-1.72-5.78-1.405-11.562-1.25-17.03 0-.938.157-1.407.938-1.407 1.72v7.656c-3.594 1.25-6.719 3.125-9.531 5.625l-6.719-3.907c-.781-.468-1.719-.312-2.344.313-3.75 4.219-6.719 9.219-8.437 14.844-.313.781 0 1.718.781 2.187l6.719 3.75a33.053 33.053 0 0 0 0 11.094l-6.719 3.75c-.781.469-1.094 1.406-.781 2.188 1.718 5.624 4.687 10.624 8.437 14.843.625.625 1.563.781 2.344.313l6.719-3.75c2.812 2.343 5.937 4.218 9.531 5.468v7.657c0 .781.625 1.562 1.406 1.875 5.782 1.25 11.563 1.094 17.032 0 .937-.313 1.562-1.094 1.562-1.875v-7.656c3.438-1.25 6.563-3.126 9.375-5.47l6.719 3.75c.781.47 1.718.313 2.343-.312 3.907-4.219 6.72-9.219 8.594-14.844.156-.78-.156-1.718-.937-2.187ZM38.1 51.5c-7.031 0-12.5-5.469-12.5-12.5 0-6.875 5.469-12.5 12.5-12.5 6.875 0 12.5 5.625 12.5 12.5 0 7.031-5.625 12.5-12.5 12.5Z"/>
</svg>
